<?xml version="1.0" encoding="UTF-8"?>
<svg width="96px" height="96px" viewBox="0 0 96 96" version="1.1" xmlns="http://www.w3.org/2000/svg" xmlns:xlink="http://www.w3.org/1999/xlink">
    <!-- Generator: Sketch 56.3 (81716) - https://sketch.com -->
    <title>Blockchain</title>
    <desc>Created with Sketch.</desc>
    <g id="Page-2" stroke="none" stroke-width="1" fill="none" fill-rule="evenodd">
        <g id="Technology_Icons" transform="translate(-304.000000, -96.000000)" fill-rule="nonzero">
            <g id="Blockchain" transform="translate(304.000000, 96.000000)">
                <g id="Group-14" transform="translate(48.499463, 49.999995) rotate(1.000000) translate(-48.499463, -49.999995) translate(13.999463, 15.999995)">
                    <g id="Group-13" transform="translate(19.496756, 0.000000)" stroke-linecap="round" stroke-linejoin="round">
                        <g id="Group-12" transform="translate(10.934403, 10.150257) scale(-1, 1) translate(-10.934403, -10.150257) translate(0.434403, 0.150257)" stroke-width="2">
                            <path d="M2.53167055,11.7334187 L2.53167055,18.4855447" id="Line-8" stroke="#FFFFFF"></path>
                            <path d="M10.1848753,9.35627995 L10.1848753,18.9898524" id="Line-8-Copy" stroke="#FFFFFF" fill=""></path>
                            <polyline id="Path-3" stroke="#FFFFFF" points="18.6965193 4.9760381 18.6965193 9.61476197 10.1848753 12.9638886"></polyline>
                            <circle id="Oval-Copy-8" stroke="#FFFFFF" fill="" cx="2.53167055" cy="9.35627995" r="2.3771387"></circle>
                            <circle id="Oval-Copy-9" stroke="#FFFFFF" fill="" cx="10.1848753" cy="6.59282466" r="2.3771387"></circle>
                            <circle id="Oval-Copy-10" stroke="#FFFFFF" fill="" cx="18.5452238" cy="2.50923395" r="2.3771387"></circle>
                        </g>
                        <g id="Group-12-Copy" transform="translate(17.825493, 58.257505) scale(1, -1) translate(-17.825493, -58.257505) translate(5.825493, 48.757505)">
                            <polyline id="Path-2" stroke="#FFFFFF" stroke-width="2" points="7.09156058 17.7643009 7.09156058 12.0256777 2.90121276 7.71747639 2.90121276 4.88637265"></polyline>
                            <path d="M6.89661592,17.7580538 L6.89661592,17.7580538" id="Line-7" stroke="#FFFFFF" stroke-width="1.8" fill=""></path>
                            <path d="M13.0948389,10.0837708 L13.0948389,18.4917918" id="Line-8-Copy" stroke="#FFFFFF" stroke-width="2"></path>
                            <polyline id="Path-3" stroke="#FFFFFF" stroke-width="2" points="21.6064829 5.70352899 21.6064829 10.3422529 13.0948389 13.6913795"></polyline>
                            <circle id="Oval" stroke="#FFFFFF" stroke-width="2" fill="" cx="2.90121276" cy="2.50923395" r="2.3771387"></circle>
                            <circle id="Oval-Copy-9" stroke="#FFFFFF" stroke-width="2" fill="" cx="13.0948389" cy="7.32031556" r="2.3771387"></circle>
                            <circle id="Oval-Copy-10" stroke="#FFFFFF" stroke-width="2" fill="" cx="21.4551874" cy="3.23672484" r="2.3771387"></circle>
                        </g>
                    </g>
                    <g id="Group-13-Copy" transform="translate(34.966136, 33.914763) rotate(-270.000000) translate(-34.966136, -33.914763) translate(19.966136, -0.085237)" stroke-linecap="round" stroke-linejoin="round">
                        <g id="Group-12" transform="translate(10.934403, 10.150257) scale(-1, 1) translate(-10.934403, -10.150257) translate(0.434403, 0.150257)">
                            <path d="M4.71414323,17.7580538 L4.71414323,17.7580538" id="Line-7" stroke="#FFFFFF" stroke-width="1.78200006" fill-opacity="0.216995018" fill=""></path>
                            <path d="M2.53167055,11.7334187 L2.53167055,18.4855447" id="Line-8" stroke="#FFFFFF" stroke-width="2"></path>
                            <path d="M10.1848753,9.35627995 L10.1848753,18.9898524" id="Line-8-Copy" stroke="#FFFFFF" stroke-width="2" fill=""></path>
                            <polyline id="Path-3" stroke="#FFFFFF" stroke-width="2" points="18.6965193 4.9760381 18.6965193 9.61476197 10.1848753 12.9638886"></polyline>
                            <circle id="Oval-Copy-8" stroke="#FFFFFF" stroke-width="2" fill="" cx="2.53167055" cy="9.35627995" r="2.3771387"></circle>
                            <circle id="Oval-Copy-9" stroke="#FFFFFF" stroke-width="2" fill="" cx="10.1848753" cy="6.59282466" r="2.3771387"></circle>
                            <circle id="Oval-Copy-10" stroke="#FFFFFF" stroke-width="2" fill="" cx="18.5452238" cy="2.50923395" r="2.3771387"></circle>
                        </g>
                        <g id="Group-12-Copy" transform="translate(17.825493, 58.257505) scale(1, -1) translate(-17.825493, -58.257505) translate(5.825493, 48.757505)">
                            <polyline id="Path-2" stroke="#FFFFFF" stroke-width="2" points="7.09156058 17.7643009 7.09156058 12.0256777 2.90121276 7.71747639 2.90121276 4.88637265"></polyline>
                            <path d="M6.89661592,17.7580538 L6.89661592,17.7580538" id="Line-7" stroke="#FFFFFF" stroke-width="1.8" fill=""></path>
                            <path d="M13.0948389,10.0837708 L13.0948389,18.4917918" id="Line-8-Copy" stroke="#FFFFFF" stroke-width="2"></path>
                            <polyline id="Path-3" stroke="#FFFFFF" stroke-width="2" points="21.6064829 5.70352899 21.6064829 10.3422529 13.0948389 13.6913795"></polyline>
                            <circle id="Oval" stroke="#FFFFFF" stroke-width="2" fill="" cx="2.90121276" cy="2.50923395" r="2.3771387"></circle>
                            <circle id="Oval-Copy-9" stroke="#FFFFFF" stroke-width="2" fill="" cx="13.0948389" cy="7.32031556" r="2.3771387"></circle>
                            <circle id="Oval-Copy-10" stroke="#FFFFFF" stroke-width="2" fill="" cx="21.4551874" cy="3.23672484" r="2.3771387"></circle>
                        </g>
                    </g>
                    <circle id="Oval" stroke="#FFFFFF" stroke-width="2" fill="" stroke-linecap="round" stroke-linejoin="round" cx="35.2959452" cy="34.1625053" r="15.7138029"></circle>
                    <circle id="Oval-Copy-11" stroke="#FFFFFF" stroke-width="2" fill="" stroke-linecap="round" stroke-linejoin="round" cx="35.2959452" cy="34.1625053" r="11.4355016"></circle>
                    <path d="M39.6071606,31.5757761 C39.6071606,29.9729638 38.5045167,28.6345505 37.0204314,28.2493198 L37.0204314,26.4023176 L35.2959452,26.4023176 L35.2959452,28.1268038 L34.4337021,28.1268038 L34.4337021,26.4023176 L32.709216,26.4023176 L32.709216,28.1268038 L31.8469729,28.1268038 C31.3699605,28.1268038 30.9847298,28.5120345 30.9847298,28.9890468 L30.9847298,39.3359637 C30.9847298,39.8129761 31.3699605,40.1982068 31.8469729,40.1982068 L32.709216,40.1982068 L32.709216,41.9226929 L34.4337021,41.9226929 L34.4337021,40.1982068 L35.2959452,40.1982068 L35.2959452,41.9226929 L37.0204314,41.9226929 L37.0204314,40.0756908 C38.5045167,39.6904601 39.6071606,38.3520467 39.6071606,36.7492345 C39.6071606,35.7135324 39.1398315,34.795294 38.4156821,34.1625053 C39.1398315,33.5297165 39.6071606,32.6114782 39.6071606,31.5757761 Z M37.8826744,36.7492345 C37.8826744,37.7003122 37.109266,38.4737206 36.1581883,38.4737206 L32.709216,38.4737206 L32.709216,35.0247484 L36.1581883,35.0247484 C37.109266,35.0247484 37.8826744,35.7981568 37.8826744,36.7492345 Z M32.709216,33.3002622 L32.709216,29.8512899 L36.1581883,29.8512899 C37.109266,29.8512899 37.8826744,30.6246983 37.8826744,31.5757761 C37.8826744,32.5268538 37.109266,33.3002622 36.1581883,33.3002622 L32.709216,33.3002622 Z" id="Shape" fill=""></path>
                </g>
            </g>
        </g>
    </g>
</svg>
