<?xml version="1.0" encoding="UTF-8"?>
<svg id="Layer_2" data-name="Layer 2" xmlns="http://www.w3.org/2000/svg" viewBox="0 0 293.51 323.18">
  <defs>
    <style>
      .cls-1 {
        fill: #fff;
        stroke-width: 0px;
      }
    </style>
  </defs>
  <g id="Layer_1-2" data-name="Layer 1">
    <path class="cls-1" d="M292.31,127.39c-3.62-30.91-16.29-58.04-37.72-80.5C218.3,8.85,173.73-6.16,121.84,2.29c-36.01,5.87-65.53,23.76-88.69,51.86C15.34,75.76,4.74,100.61,1.2,128.44c-2.45,19.16-1.13,38.08,3.9,56.69,5.04,18.61,13.46,35.6,25.29,50.85,1.24,1.6,1.29,2.88.49,4.71-6.54,14.96-12.97,29.97-19.43,44.96-2.88,6.67-1.75,9.98,4.5,13.35h4.09c.54-.18,1.08-.44,1.64-.54,23.07-4.07,46.16-8.09,69.22-12.23,4.26-.76,8.27-.94,12.52.56,13.99,4.92,28.57,6.88,43.32,6.77,6.63-.05,13.13-.47,19.48-1.29,11.89,18.59,32.71,30.91,56.41,30.91,36.94,0,66.89-29.94,66.89-66.89,0-14.99-4.93-28.83-13.26-39.98,14.55-26.32,19.89-56.06,16.05-88.92ZM103.73,270.14c-3.14-1.1-6.18-1.24-9.43-.66-20.39,3.63-40.79,7.18-61.19,10.74-.46.08-.94.05-1.87.09,4.83-11.26,9.46-22.06,14.09-32.86.92-2.15,1.78-4.32,2.79-6.42,1.8-3.76,1.04-6.97-1.33-10.32-5.23-7.36-10.65-14.64-15.13-22.45-8.07-14.08-12.53-29.45-14.53-45.54C9.2,99.28,48.64,40.91,107.59,21.98c73.46-23.61,152.51,22.68,167.6,98.37,5.87,29.46,1.49,58.63-10.78,83.7-11.45-9.17-25.97-14.65-41.78-14.65-36.95,0-66.89,29.95-66.89,66.89,0,7.26,1.16,14.26,3.3,20.81-18.61,1.8-37.07-.6-55.31-6.96ZM252.63,250.3v11.94h-24.06v24.05h-11.93v-24.05h-24.01v-11.94h24.01v-24.01h11.93v24.01h24.06Z"/>
  </g>
</svg>