<?xml version="1.0" encoding="UTF-8"?>
<svg width="96px" height="96px" viewBox="0 0 96 96" version="1.1" xmlns="http://www.w3.org/2000/svg" xmlns:xlink="http://www.w3.org/1999/xlink">
    <!-- Generator: Sketch 56.3 (81716) - https://sketch.com -->
    <title>Computer_Vision_image or video processing</title>
    <desc>Created with Sketch.</desc>
    <g id="Page-2" stroke="none" stroke-width="1" fill="none" fill-rule="evenodd">
        <g id="Technology_Icons" transform="translate(-688.000000, -96.000000)" fill-rule="nonzero">
            <g id="Computer-Vision-&amp;-image-or-video-processing" transform="translate(688.000000, 96.000000)">
                <g id="Group-29-Copy" transform="translate(20.000000, 20.000000)">
                    <g id="Group-27" transform="translate(13.537341, 0.000000)" stroke="#FFFFFF" stroke-linecap="round" stroke-linejoin="round" stroke-width="1.8">
                        <g id="Group-26" transform="translate(0.176797, 49.690346)">
                            <path d="M28.4590164,0.300455908 L28.4590164,4.96903461" id="Line-9"></path>
                            <path d="M0.451730419,0.300455908 L0.451730419,4.96903461" id="Line-9-Copy"></path>
                            <path d="M6.05318761,0.300455908 L6.05318761,4.96903461" id="Line-9-Copy-2"></path>
                            <path d="M11.6546448,0.300455908 L11.6546448,4.96903461" id="Line-9-Copy-3"></path>
                            <path d="M17.256102,0.300455908 L17.256102,4.96903461" id="Line-9-Copy-4"></path>
                            <path d="M22.8575592,0.300455908 L22.8575592,4.96903461" id="Line-9-Copy-5"></path>
                        </g>
                        <g id="Group-26-Copy" transform="translate(0.176797, 0.000000)">
                            <path d="M28.4590164,0.300455908 L28.4590164,4.96903461" id="Line-9"></path>
                            <path d="M0.451730419,0.300455908 L0.451730419,4.96903461" id="Line-9-Copy"></path>
                            <path d="M6.05318761,0.300455908 L6.05318761,4.96903461" id="Line-9-Copy-2"></path>
                            <path d="M11.6546448,0.300455908 L11.6546448,4.96903461" id="Line-9-Copy-3"></path>
                            <path d="M17.256102,0.300455908 L17.256102,4.96903461" id="Line-9-Copy-4"></path>
                            <path d="M22.8575592,0.300455908 L22.8575592,4.96903461" id="Line-9-Copy-5"></path>
                        </g>
                    </g>
                    <g id="Group-27-Copy" transform="translate(28.000000, 27.648452) rotate(-270.000000) translate(-28.000000, -27.648452) translate(13.000000, -0.351548)" stroke="#FFFFFF" stroke-linecap="round" stroke-linejoin="round" stroke-width="1.8">
                        <g id="Group-26" transform="translate(0.176797, 49.690346)">
                            <path d="M28.4590164,0.300455908 L28.4590164,4.96903461" id="Line-9"></path>
                            <path d="M0.451730419,0.300455908 L0.451730419,4.96903461" id="Line-9-Copy"></path>
                            <path d="M6.05318761,0.300455908 L6.05318761,4.96903461" id="Line-9-Copy-2"></path>
                            <path d="M11.6546448,0.300455908 L11.6546448,4.96903461" id="Line-9-Copy-3"></path>
                            <path d="M17.256102,0.300455908 L17.256102,4.96903461" id="Line-9-Copy-4"></path>
                            <path d="M22.8575592,0.300455908 L22.8575592,4.96903461" id="Line-9-Copy-5"></path>
                        </g>
                        <g id="Group-26-Copy" transform="translate(0.176797, 0.000000)">
                            <path d="M28.4590164,0.300455908 L28.4590164,4.96903461" id="Line-9"></path>
                            <path d="M0.451730419,0.300455908 L0.451730419,4.96903461" id="Line-9-Copy"></path>
                            <path d="M6.05318761,0.300455908 L6.05318761,4.96903461" id="Line-9-Copy-2"></path>
                            <path d="M11.6546448,0.300455908 L11.6546448,4.96903461" id="Line-9-Copy-3"></path>
                            <path d="M17.256102,0.300455908 L17.256102,4.96903461" id="Line-9-Copy-4"></path>
                            <path d="M22.8575592,0.300455908 L22.8575592,4.96903461" id="Line-9-Copy-5"></path>
                        </g>
                    </g>
                    <rect id="Rectangle" stroke="#FFFFFF" stroke-width="1.8" fill="" stroke-linecap="round" stroke-linejoin="round" x="6.4864506" y="5.72122094" width="43.3661202" height="43.3661202"></rect>
                    <rect id="Rectangle-Copy" stroke="#FFFFFF" stroke-width="1.8" fill="" stroke-linecap="round" stroke-linejoin="round" x="11.0037548" y="10.2385251" width="34.3315118" height="34.3315118" rx="2"></rect>
                    <g id="Group-28" transform="translate(20.586633, 19.480784)" fill="" stroke="#FFFFFF" stroke-linecap="round" stroke-linejoin="round" stroke-width="1.8">
                        <rect id="Rectangle" x="-0.300728597" y="-0.9" width="16.2553734" height="17.1588342" rx="2"></rect>
                    </g>
                    <path d="M31.690227,23.8268507 L31.690227,30.4935511 C31.690227,30.7696934 31.4663694,30.9935511 31.190227,30.9935511 C31.0771619,30.9935511 30.9674347,30.9552298 30.8789521,30.8848411 L26.6887443,27.5514909 C26.4726408,27.3795785 26.4368168,27.0650295 26.6087292,26.8489259 C26.6322872,26.8193123 26.6591307,26.7924688 26.6887443,26.7689109 L30.8789521,23.4355607 C31.0950556,23.2636483 31.4096047,23.2994723 31.5815171,23.5155758 C31.6519058,23.6040584 31.690227,23.7137856 31.690227,23.8268507 Z" id="Rectangle" fill="" transform="translate(29.095114, 27.160191) scale(-1, 1) translate(-29.095114, -27.160191) "></path>
                </g>
            </g>
        </g>
    </g>
</svg>
