<?xml version="1.0" encoding="UTF-8"?>
<svg width="96px" height="96px" viewBox="0 0 96 96" version="1.1" xmlns="http://www.w3.org/2000/svg" xmlns:xlink="http://www.w3.org/1999/xlink">
    <!-- Generator: Sketch 56.3 (81716) - https://sketch.com -->
    <title>Robotics And Automation</title>
    <desc>Created with Sketch.</desc>
    <g id="Page-2" stroke="none" stroke-width="1" fill="none" fill-rule="evenodd" stroke-linecap="round" stroke-linejoin="round">
        <g id="Technology_Icons" transform="translate(-880.000000, -528.000000)" fill-rule="nonzero" stroke-width="2">
            <g id="Robotics-And-Automation" transform="translate(880.000000, 528.000000)">
                <g id="Group-36" transform="translate(14.000000, 14.000000)">
                    <path d="M41.1959595,64.9353206 L27.372583,64.9353206 L6,43.5627376 L13.0710678,36.4916698 L41.3553391,64.775941 L41.1959595,64.9353206 Z" id="Combined-Shape" stroke="#FFFFFF" fill=""></path>
                    <rect id="Rectangle" stroke="#FFFFFF" fill="" x="12" y="64.9353206" width="44" height="4"></rect>
                    <g id="Group-29" transform="translate(34.779800, 27.500000) rotate(-300.000000) translate(-34.779800, -27.500000) translate(21.779800, -4.000000)" stroke="#FFFFFF">
                        <rect id="Rectangle" fill="" x="8" y="23" width="10" height="40"></rect>
                        <path d="M9.82758621,-2.68229883e-13 L9,8 L11,12 L15,12 L17,8 L16.1724138,-2.7000624e-13 L20,-2.7000624e-13 L26,12 L18,24 L8,24 L0,12 L6,-2.7000624e-13 L9.82758621,-2.7000624e-13 Z" id="Combined-Shape" fill=""></path>
                    </g>
                    <circle id="Oval" stroke="#FFFFFF" fill="" cx="11" cy="40.9353206" r="11"></circle>
                    <circle id="Oval" stroke="#FFFFFF" fill="" cx="11" cy="40.9353206" r="6"></circle>
                </g>
            </g>
        </g>
    </g>
</svg>
